<?xml version="1.0" encoding="UTF-8" standalone="no"?>
<!-- Created with Inkscape (http://www.inkscape.org/) -->

<svg
   width="196.48489mm"
   height="63.936222mm"
   viewBox="0 0 196.48489 63.936222"
   version="1.1"
   id="svg1"
   xmlns="http://www.w3.org/2000/svg"
   xmlns:svg="http://www.w3.org/2000/svg">
  <defs
     id="defs1" />
  <g
     id="layer1"
     transform="translate(-8.9776938,-99.622897)">
    <rect
       style="fill:none;stroke:#010101;stroke-width:1.1;stroke-linejoin:round;stroke-dasharray:none"
       id="rect1"
       width="105.07181"
       height="42.889397"
       x="18.04884"
       y="100.94024"
       ry="0.66145831" />
    <circle
       id="path1"
       style="fill:#000000;stroke:#010101;stroke-width:0.264583"
       cx="10.351276"
       cy="105.86603"
       r="0.075665131" />
    <path
       style="fill:none;stroke:#000000;stroke-width:1.1;stroke-linecap:butt;stroke-linejoin:miter;stroke-dasharray:none;stroke-opacity:1"
       d="m 10.414201,105.86713 c 7.634639,0 7.634639,-4.92689 7.634639,-4.92689"
       id="path2" />
    <path
       style="fill:none;stroke:#000000;stroke-width:1.1;stroke-linecap:butt;stroke-linejoin:miter;stroke-dasharray:none;stroke-opacity:1"
       d="m 130.7553,105.86713 c -7.63464,0 -7.63464,-4.92689 -7.63464,-4.92689"
       id="path2-9" />
    <path
       style="fill:none;stroke:#000000;stroke-width:1.1;stroke-linecap:butt;stroke-linejoin:miter;stroke-dasharray:none;stroke-opacity:1"
       d="m 9.527694,154.2911 c 7.727826,-4.20412 8.521145,-10.46146 8.521145,-10.46146"
       id="path3" />
    <path
       style="fill:none;stroke:#000000;stroke-width:1.1;stroke-linecap:butt;stroke-linejoin:miter;stroke-dasharray:none;stroke-opacity:1"
       d="m 131.63743,154.14294 c -7.72783,-4.20412 -8.52114,-10.46146 -8.52114,-10.46146"
       id="path3-9" />
    <path
       style="fill:none;stroke:#000000;stroke-width:1.1;stroke-linecap:butt;stroke-linejoin:round;stroke-dasharray:none;stroke-opacity:1"
       d="M 10.275612,105.86603 9.527693,154.2911 131.63743,154.14294 130.7553,105.86713"
       id="path4" />
    <path
       style="fill:none;stroke:#000000;stroke-width:1.1;stroke-linecap:butt;stroke-linejoin:round;stroke-dasharray:none;stroke-opacity:1"
       d="m 9.527694,154.2911 0.0022,8.71802 122.109726,-0.14816 -0.002,-8.71802"
       id="path4-1" />
    <text
       xml:space="preserve"
       style="font-style:normal;font-weight:normal;font-size:10.5833px;line-height:1.25;font-family:sans-serif;letter-spacing:0px;word-spacing:0px;white-space:pre;inline-size:27.3759;fill:#000000;fill-opacity:1;stroke:none;stroke-width:0.118575"
       x="82.109573"
       y="142.62222"
       id="text4"
       transform="matrix(2.0333282,0,0,2.4486676,-122.10762,-217.85698)"><tspan
         x="82.109573"
         y="142.62222"
         id="tspan3"><tspan
           style="font-family:Ubuntu;-inkscape-font-specification:Ubuntu"
           id="tspan2">CTRL</tspan></tspan></text>
    <rect
       style="fill:none;stroke:#010101;stroke-width:1.1;stroke-linejoin:round;stroke-dasharray:none"
       id="rect1-1"
       width="47.461609"
       height="42.889397"
       x="149.21733"
       y="100.1729"
       ry="0.66145831" />
    <circle
       id="path1-9"
       style="fill:#000000;stroke:#010101;stroke-width:0.264583"
       cx="141.51978"
       cy="105.09868"
       r="0.075665131" />
    <path
       style="fill:none;stroke:#000000;stroke-width:1.1;stroke-linecap:butt;stroke-linejoin:miter;stroke-dasharray:none;stroke-opacity:1"
       d="m 141.58269,105.09978 c 7.63464,0 7.63464,-4.92689 7.63464,-4.92689"
       id="path2-4" />
    <path
       style="fill:none;stroke:#000000;stroke-width:1.1;stroke-linecap:butt;stroke-linejoin:miter;stroke-dasharray:none;stroke-opacity:1"
       d="m 204.31357,105.0998 c -7.63463,0 -7.63463,-4.92689 -7.63463,-4.92689"
       id="path2-9-7" />
    <path
       style="fill:none;stroke:#000000;stroke-width:1.1;stroke-linecap:butt;stroke-linejoin:miter;stroke-dasharray:none;stroke-opacity:1"
       d="m 140.69618,153.52375 c 7.72783,-4.20412 8.52115,-10.46146 8.52115,-10.46146"
       id="path3-8" />
    <path
       style="fill:none;stroke:#000000;stroke-width:1.1;stroke-linecap:butt;stroke-linejoin:miter;stroke-dasharray:none;stroke-opacity:1"
       d="m 205.19571,153.02378 c -7.72783,-4.20412 -8.52114,-10.46146 -8.52114,-10.46146"
       id="path3-9-4" />
    <path
       style="fill:none;stroke:#000000;stroke-width:1.1;stroke-linecap:butt;stroke-linejoin:round;stroke-dasharray:none;stroke-opacity:1"
       d="m 141.01375,105.09868 -0.39379,48.42507 64.29165,-0.14816 -0.46445,-48.27581"
       id="path4-5" />
    <path
       style="fill:none;stroke:#000000;stroke-width:1.1;stroke-linecap:butt;stroke-linejoin:round;stroke-dasharray:none;stroke-opacity:1"
       d="m 140.62168,153.52375 9.8e-4,8.71802 64.28993,-0.14816 -9.8e-4,-8.71802"
       id="path4-1-0" />
    <text
       xml:space="preserve"
       style="font-style:normal;font-weight:normal;font-size:10.5833px;line-height:1.25;font-family:sans-serif;letter-spacing:0px;word-spacing:0px;white-space:pre;inline-size:27.3759;display:inline;fill:#000000;fill-opacity:1;stroke:none;stroke-width:0.118575"
       x="82.109573"
       y="142.62222"
       id="text4-3"
       transform="matrix(2.0333282,0,0,2.4486676,-1.378167,-218.17075)"><tspan
         x="82.109573"
         y="142.62222"
         id="tspan4">Z</tspan></text>
  </g>
</svg>
